<?xml version="1.0" encoding="utf-8"?><svg fill="none" viewBox="0 0 500 500" xmlns="http://www.w3.org/2000/svg"><defs /><g id="r leg"><g transform="translate(124.506,324.846)"><g transform="rotate(0)"><animateTransform repeatCount="indefinite" type="rotate" attributeName="transform" dur="5.567s" begin="0s" calcMode="spline" values="0; 6; 6; 0; 0; 6; 6; 0" keyTimes="0; 0.093; 0.352; 0.444; 0.556; 0.648; 0.907; 1" keySplines="0.333 0 0.667 1; 0.3 0 0.667 1; 0.333 0 0.667 1; 0.31 0 0.667 1; 0.333 0 0.667 1; 0.3 0 0.667 1; 0.333 0 0.667 1" fill="freeze" /><g transform="scale(1,1) translate(125.494,-74.846)"><g id="Group 1"><path fill="#88b8f9" fill-opacity="1" d="M-106.927,75.313L-112.086,172.531C-112.608,182.094,-120.838,189.454,-130.401,188.933C-139.675,188.411,-146.861,180.703,-146.861,171.546L-146.861,75.313L-106.927,75.313Z" /></g></g></g></g></g><g transform="matrix(1,0,0,1,250,250)" id="l leg"><g id="Group 1"><path fill="#88b8f9" fill-opacity="1" d="M-53.878,75.063L-54.128,171.546C-54.128,181.167,-61.894,188.933,-71.515,188.933C-80.788,188.933,-88.381,181.63,-88.903,172.531L-93.811,75.063L-53.878,75.063Z" /></g></g><g id="body"><g transform="translate(149.506,314.846)"><animateTransform repeatCount="indefinite" type="translate" attributeName="transform" dur="5.567s" begin="0s" calcMode="spline" values="149.506 314.846; 149.506 319.846; 149.506 314.846; 149.506 314.846; 149.506 319.846; 149.506 314.846; 149.506 314.846; 149.506 319.846; 149.506 314.846; 149.506 314.846; 149.506 319.846; 149.506 314.846" keyTimes="0; 0.049; 0.093; 0.352; 0.395; 0.444; 0.556; 0.605; 0.648; 0.907; 0.951; 1" keySplines="0.333 0 0.667 1; 0.333 0 0.667 1; 0.333 0 0.667 1; 0.333 0 0.667 1; 0.333 0 0.667 1; 0 0 1 1; 0.333 0 0.667 1; 0.333 0 0.667 1; 0.333 0 0.667 1; 0.333 0 0.667 1; 0.333 0 0.667 1" fill="freeze" /><g transform="rotate(-1)"><animateTransform repeatCount="indefinite" type="rotate" attributeName="transform" dur="5.567s" begin="0s" calcMode="spline" values="-1; 5; 5; -1; -1; 5; 5; -1" keyTimes="0; 0.093; 0.352; 0.444; 0.556; 0.648; 0.907; 1" keySplines="0.333 0 0.667 1; 0.3 0 0.667 1; 0.333 0 0.667 1; 0.31 0 0.667 1; 0.333 0 0.667 1; 0.3 0 0.667 1; 0.333 0 0.667 1" fill="freeze" /><g transform="scale(1,1) translate(100.494,-64.846)"><g id="Group 1"><path fill="#88b8f9" fill-opacity="1" d="M-42.536,78.813L-54.128,78.813L-94.061,78.813L-106.927,78.813L-146.861,78.813L-158.453,78.813L-145.238,-48.928C-142.862,-71.821,-123.561,-89.267,-100.494,-89.267C-77.427,-89.267,-58.127,-71.821,-55.751,-48.928L-53.258,-25.049L-49.143,15.116L-42.536,78.813Z" /></g></g></g></g></g><g id="body"><g transform="translate(149.506,314.846)"><animateTransform repeatCount="indefinite" type="translate" attributeName="transform" dur="5.567s" begin="0s" calcMode="spline" values="149.506 314.846; 149.506 319.846; 149.506 314.846; 149.506 314.846; 149.506 319.846; 149.506 314.846; 149.506 314.846; 149.506 319.846; 149.506 314.846; 149.506 314.846; 149.506 319.846; 149.506 314.846" keyTimes="0; 0.049; 0.093; 0.352; 0.395; 0.444; 0.556; 0.605; 0.648; 0.907; 0.951; 1" keySplines="0.333 0 0.667 1; 0.333 0 0.667 1; 0.333 0 0.667 1; 0.333 0 0.667 1; 0.333 0 0.667 1; 0 0 1 1; 0.333 0 0.667 1; 0.333 0 0.667 1; 0.333 0 0.667 1; 0.333 0 0.667 1; 0.333 0 0.667 1" fill="freeze" /><g transform="rotate(-1)"><animateTransform repeatCount="indefinite" type="rotate" attributeName="transform" dur="5.567s" begin="0s" calcMode="spline" values="-1; 5; 5; -1; -1; 5; 5; -1" keyTimes="0; 0.093; 0.352; 0.444; 0.556; 0.648; 0.907; 1" keySplines="0.333 0 0.667 1; 0.3 0 0.667 1; 0.333 0 0.667 1; 0.31 0 0.667 1; 0.333 0 0.667 1; 0.3 0 0.667 1; 0.333 0 0.667 1" fill="freeze" /><g transform="scale(1,1) translate(100.494,-64.846)"><g id="r hand"><g transform="translate(-105.618,-63.857)"><g transform="rotate(32)"><animateTransform repeatCount="indefinite" type="rotate" attributeName="transform" dur="5.567s" begin="0s" calcMode="spline" values="32; -7; -6; -7; -6; -7; -6; -7; 32; 32; -7; -6; -7; -6; -7; -6; -7; 32" keyTimes="0; 0.093; 0.136; 0.179; 0.222; 0.265; 0.309; 0.352; 0.444; 0.556; 0.648; 0.691; 0.735; 0.778; 0.821; 0.864; 0.907; 1" keySplines="0.333 0 0.667 1; 0.333 0 0.833 1; 0.167 0 0.667 1; 0.297 0 0.833 1; 0.167 0 0.667 1; 0.297 0 0.833 1; 0.167 0 0.667 1; 0.333 0 0.667 1; 0.31 0 0.667 1; 0.333 0 0.667 1; 0.333 0 0.833 1; 0.167 0 0.667 1; 0.297 0 0.833 1; 0.167 0 0.667 1; 0.297 0 0.833 1; 0.167 0 0.667 1; 0.333 0 0.667 1" fill="freeze" /><g transform="scale(1,1) translate(105.618,63.857)"><g id="Group 1" stroke-linejoin="miter" stroke-linecap="butt" stroke-width="10" stroke-opacity="1" stroke="#ffffff"><path fill="#88b8f9" fill-opacity="1" d="M-5.941,27.504C-9.137,32.639,-15.758,34.452,-21.069,31.747L-84.04,-0.067C-86.596,-1.718,-89.331,-5.178,-90.981,-8.138L-91.656,-9.364L-115.215,-45.276C-120.779,-53.158,-118.867,-63.997,-110.985,-69.503C-103.103,-75.067,-92.264,-73.155,-86.7,-65.272C-86.352,-64.751,-86.063,-64.228,-85.773,-63.707L-63.756,-21.609L-9.761,11.542C-4.299,14.855,-2.609,21.988,-5.941,27.504Z" /></g></g></g></g></g></g></g></g></g><g id="body"><g transform="translate(149.506,314.846)"><animateTransform repeatCount="indefinite" type="translate" attributeName="transform" dur="5.567s" begin="0s" calcMode="spline" values="149.506 314.846; 149.506 319.846; 149.506 314.846; 149.506 314.846; 149.506 319.846; 149.506 314.846; 149.506 314.846; 149.506 319.846; 149.506 314.846; 149.506 314.846; 149.506 319.846; 149.506 314.846" keyTimes="0; 0.049; 0.093; 0.352; 0.395; 0.444; 0.556; 0.605; 0.648; 0.907; 0.951; 1" keySplines="0.333 0 0.667 1; 0.333 0 0.667 1; 0.333 0 0.667 1; 0.333 0 0.667 1; 0.333 0 0.667 1; 0 0 1 1; 0.333 0 0.667 1; 0.333 0 0.667 1; 0.333 0 0.667 1; 0.333 0 0.667 1; 0.333 0 0.667 1" fill="freeze" /><g transform="rotate(-1)"><animateTransform repeatCount="indefinite" type="rotate" attributeName="transform" dur="5.567s" begin="0s" calcMode="spline" values="-1; 5; 5; -1; -1; 5; 5; -1" keyTimes="0; 0.093; 0.352; 0.444; 0.556; 0.648; 0.907; 1" keySplines="0.333 0 0.667 1; 0.3 0 0.667 1; 0.333 0 0.667 1; 0.31 0 0.667 1; 0.333 0 0.667 1; 0.3 0 0.667 1; 0.333 0 0.667 1" fill="freeze" /><g transform="scale(1,1) translate(100.494,-64.846)"><g id="head"><g transform="translate(-100.28,-101.429)"><animateTransform repeatCount="indefinite" type="translate" attributeName="transform" dur="5.567s" begin="0s" calcMode="spline" values="-100.28 -101.429; -100.199 -99.431; -100.28 -101.429; -100.28 -101.429; -100.199 -99.431; -100.28 -101.429; -100.28 -101.429; -100.199 -99.431; -100.28 -101.429; -100.28 -101.429; -100.199 -99.431; -100.28 -101.429" keyTimes="0; 0.049; 0.093; 0.352; 0.395; 0.444; 0.556; 0.605; 0.648; 0.907; 0.951; 1" keySplines="0.333 0 0.667 1; 0.333 0 0.667 1; 0.333 0 0.667 1; 0.333 0 0.667 1; 0.333 0 0.667 1; 0 0 1 1; 0.333 0 0.667 1; 0.333 0 0.667 1; 0.333 0 0.667 1; 0.333 0 0.667 1; 0.333 0 0.667 1" fill="freeze" /><g transform="rotate(-2)"><animateTransform repeatCount="indefinite" type="rotate" attributeName="transform" dur="5.567s" begin="0s" calcMode="spline" values="-2; 0; 0; -2; -2; 0; 0; -2" keyTimes="0; 0.093; 0.352; 0.444; 0.556; 0.648; 0.907; 1" keySplines="0.333 0 0.667 1; 0.3 0 0.667 1; 0.333 0 0.667 1; 0.31 0 0.667 1; 0.333 0 0.667 1; 0.3 0 0.667 1; 0.333 0 0.667 1" fill="freeze" /><g transform="scale(1,1) translate(100.28,101.429)"><g id="Group 2"><path fill="#88b8f9" fill-opacity="1" d="M-59.923,-141.429C-59.923,-163.836,-78.087,-182,-100.494,-182C-122.901,-182,-141.065,-163.836,-141.065,-141.429C-141.065,-119.022,-122.901,-100.858,-100.494,-100.858C-78.087,-100.858,-59.923,-119.022,-59.923,-141.429Z" /></g><g id="Group 1"><path fill="#88b8f9" fill-opacity="1" d="M-126.575,-164.243L-126.575,-164.243C-142.091,-165.795,-155.555,-153.611,-155.555,-138.018L-155.555,-138.018C-155.555,-128.202,-162.936,-119.954,-172.692,-118.87L-176.195,-118.481C-179.293,-118.137,-181.636,-115.519,-181.636,-112.402L-181.636,-112.402C-181.636,-109.024,-178.897,-106.285,-175.519,-106.285L-160.094,-106.285C-146.703,-106.285,-136.146,-117.685,-137.173,-131.036L-137.173,-131.036C-137.774,-138.849,-133.584,-146.249,-126.575,-149.754L-126.575,-149.754L-126.575,-164.243Z" /></g></g></g></g></g></g></g></g></g><g transform="matrix(1,0,0,1,250,250)" id="r leg"><g id="Group 1"><path fill="#2f79f0" fill-opacity="1" d="M101.973,77.813L99.066,128.715L96.564,172.531C96.042,182.094,87.813,189.454,78.25,188.933C68.976,188.411,61.789,180.703,61.789,171.546L61.907,127.393C61.907,127.393,62.039,77.997,62.039,77.967L101.973,77.813Z" /></g></g><g transform="matrix(1,0,0,1,250,250)" id="l leg"><g id="Group 1"><path fill="#2f79f0" fill-opacity="1" d="M154.523,171.546C154.523,181.167,146.756,188.933,137.135,188.933C127.862,188.933,120.27,181.63,119.748,172.531L114.589,78.313L154.215,77.558C154.215,77.674,154.523,171.546,154.523,171.546Z" /></g></g><g id="body"><g transform="translate(357.506,323.846)"><animateTransform repeatCount="indefinite" type="translate" attributeName="transform" dur="5.567s" begin="0s" calcMode="spline" values="357.506 323.846; 357.506 326.846; 357.506 323.846; 357.506 323.846; 357.506 326.846; 357.506 323.846; 357.506 323.846; 357.506 326.846; 357.506 323.846; 357.506 323.846; 357.506 326.846; 357.506 323.846" keyTimes="0; 0.049; 0.093; 0.352; 0.395; 0.444; 0.556; 0.605; 0.648; 0.907; 0.951; 1" keySplines="0.333 0 0.667 1; 0.333 0 0.667 1; 0.333 0 0.667 1; 0.333 0 0.667 1; 0.333 0 0.667 1; 0 0 1 1; 0.333 0 0.667 1; 0.333 0 0.667 1; 0.333 0 0.667 1; 0.333 0 0.667 1; 0.333 0 0.667 1" fill="freeze" /><g transform="rotate(1)"><animateTransform repeatCount="indefinite" type="rotate" attributeName="transform" dur="5.567s" begin="0s" calcMode="spline" values="1; -3; -3; 1; 1; -3; -3; 1" keyTimes="0; 0.093; 0.352; 0.444; 0.556; 0.648; 0.907; 1" keySplines="0.333 0 0.667 1; 0.3 0 0.667 1; 0.333 0 0.667 1; 0.31 0 0.667 1; 0.333 0 0.667 1; 0.3 0 0.667 1; 0.333 0 0.667 1" fill="freeze" /><g transform="scale(1,1) translate(-107.506,-73.846)"><g id="r hand"><g transform="translate(112.515,-63.42)"><g transform="rotate(23)"><animateTransform repeatCount="indefinite" type="rotate" attributeName="transform" dur="5.567s" begin="0s" calcMode="spline" values="23; 76; 76; 76; 76; 76; 76; 76; 23; 23; 76; 76; 76; 76; 76; 76; 76; 23" keyTimes="0; 0.093; 0.136; 0.179; 0.222; 0.265; 0.309; 0.352; 0.444; 0.556; 0.648; 0.691; 0.735; 0.778; 0.821; 0.864; 0.907; 1" keySplines="0.333 0 0.667 1; 0.333 0 0.667 1; 0.333 0 0.667 1; 0.297 0 0.667 1; 0.333 0 0.667 1; 0.297 0 0.667 1; 0.333 0 0.667 1; 0.333 0 0.667 1; 0.31 0 0.667 1; 0.333 0 0.667 1; 0.333 0 0.667 1; 0.333 0 0.667 1; 0.297 0 0.667 1; 0.333 0 0.667 1; 0.297 0 0.667 1; 0.333 0 0.667 1; 0.333 0 0.667 1" fill="freeze" /><g transform="scale(1,1) translate(-96.597,65.57)"><g id="Group 1"><path fill="#2f79f0" fill-opacity="1" d="M172.722,-6.444L135.454,50.007C131.976,55.339,124.732,56.846,119.4,53.311C114.358,49.949,112.792,43.284,115.632,38.068L141.482,-9.574L97.491,-40.756C89.667,-46.32,87.813,-57.216,93.377,-65.04C98.941,-72.865,109.779,-74.719,117.603,-69.155C118.009,-68.865,118.472,-68.518,118.82,-68.228L169.186,-25.339L170.171,-24.527C175.561,-20.006,176.547,-12.182,172.722,-6.444Z" /></g></g></g></g></g></g></g></g></g><g id="body"><g transform="translate(357.506,323.846)"><animateTransform repeatCount="indefinite" type="translate" attributeName="transform" dur="5.567s" begin="0s" calcMode="spline" values="357.506 323.846; 357.506 326.846; 357.506 323.846; 357.506 323.846; 357.506 326.846; 357.506 323.846; 357.506 323.846; 357.506 326.846; 357.506 323.846; 357.506 323.846; 357.506 326.846; 357.506 323.846" keyTimes="0; 0.049; 0.093; 0.352; 0.395; 0.444; 0.556; 0.605; 0.648; 0.907; 0.951; 1" keySplines="0.333 0 0.667 1; 0.333 0 0.667 1; 0.333 0 0.667 1; 0.333 0 0.667 1; 0.333 0 0.667 1; 0 0 1 1; 0.333 0 0.667 1; 0.333 0 0.667 1; 0.333 0 0.667 1; 0.333 0 0.667 1; 0.333 0 0.667 1" fill="freeze" /><g transform="rotate(1)"><animateTransform repeatCount="indefinite" type="rotate" attributeName="transform" dur="5.567s" begin="0s" calcMode="spline" values="1; -3; -3; 1; 1; -3; -3; 1" keyTimes="0; 0.093; 0.352; 0.444; 0.556; 0.648; 0.907; 1" keySplines="0.333 0 0.667 1; 0.3 0 0.667 1; 0.333 0 0.667 1; 0.31 0 0.667 1; 0.333 0 0.667 1; 0.3 0 0.667 1; 0.333 0 0.667 1" fill="freeze" /><g transform="scale(1,1) translate(-107.506,-73.846)"><g id="Group 1"><path fill="#2f79f0" fill-opacity="1" d="M114.589,78.813L101.723,78.813C101.723,78.813,61.789,78.025,61.789,77.967L63.818,12.798L64.861,-15.138L66.078,-48.696C66.948,-71.358,85.494,-89.267,108.156,-89.267C130.702,-89.267,149.133,-71.59,150.176,-49.102L153.305,33.489L154.465,78.308C154.465,78.424,114.589,78.813,114.589,78.813Z" /></g></g></g></g></g><g id="body"><g transform="translate(357.506,323.846)"><animateTransform repeatCount="indefinite" type="translate" attributeName="transform" dur="5.567s" begin="0s" calcMode="spline" values="357.506 323.846; 357.506 326.846; 357.506 323.846; 357.506 323.846; 357.506 326.846; 357.506 323.846; 357.506 323.846; 357.506 326.846; 357.506 323.846; 357.506 323.846; 357.506 326.846; 357.506 323.846" keyTimes="0; 0.049; 0.093; 0.352; 0.395; 0.444; 0.556; 0.605; 0.648; 0.907; 0.951; 1" keySplines="0.333 0 0.667 1; 0.333 0 0.667 1; 0.333 0 0.667 1; 0.333 0 0.667 1; 0.333 0 0.667 1; 0 0 1 1; 0.333 0 0.667 1; 0.333 0 0.667 1; 0.333 0 0.667 1; 0.333 0 0.667 1; 0.333 0 0.667 1" fill="freeze" /><g transform="rotate(1)"><animateTransform repeatCount="indefinite" type="rotate" attributeName="transform" dur="5.567s" begin="0s" calcMode="spline" values="1; -3; -3; 1; 1; -3; -3; 1" keyTimes="0; 0.093; 0.352; 0.444; 0.556; 0.648; 0.907; 1" keySplines="0.333 0 0.667 1; 0.3 0 0.667 1; 0.333 0 0.667 1; 0.31 0 0.667 1; 0.333 0 0.667 1; 0.3 0 0.667 1; 0.333 0 0.667 1" fill="freeze" /><g transform="scale(1,1) translate(-107.506,-73.846)"><g id="l hand"><g transform="translate(96.597,-65.57)"><g transform="rotate(15)"><animateTransform repeatCount="indefinite" type="rotate" attributeName="transform" dur="5.567s" begin="0s" calcMode="spline" values="15; 0; 0; 15; 15; 0; 0; 15" keyTimes="0; 0.093; 0.352; 0.444; 0.556; 0.648; 0.907; 1" keySplines="0.333 0 0.667 1; 0.3 0 0.667 1; 0.333 0 0.667 1; 0.31 0 0.667 1; 0.333 0 0.667 1; 0.3 0 0.667 1; 0.333 0 0.667 1" fill="freeze" /><g transform="scale(1,1) translate(-96.597,65.57)"><g id="bag"><g transform="translate(126.043,42.302)"><g transform="rotate(-15)"><animateTransform repeatCount="indefinite" type="rotate" attributeName="transform" dur="5.567s" begin="0s" calcMode="spline" values="-15; 0; 0; -15; -15; 0; 0; -15" keyTimes="0; 0.093; 0.352; 0.444; 0.556; 0.648; 0.907; 1" keySplines="0.333 0 0.667 1; 0.3 0 0.667 1; 0.333 0 0.667 1; 0.31 0 0.667 1; 0.333 0 0.667 1; 0.3 0 0.667 1; 0.333 0 0.667 1" fill="freeze" /><g transform="scale(1,1) translate(-126.043,-42.302)"><g id="Group 4"><g id="Group 1"><path fill="#f8cf6d" fill-opacity="1" d="M113.952,61.425L137.135,61.425L137.135,49.833L113.952,49.833L113.952,61.425ZM142.931,73.017L108.156,73.017C104.955,73.017,102.36,70.422,102.36,67.221L102.36,49.833C102.36,43.431,107.55,38.242,113.952,38.242L137.135,38.242C143.537,38.242,148.727,43.431,148.727,49.833L148.727,67.221C148.727,70.422,146.132,73.017,142.931,73.017Z" /></g></g><g id="Group 3"><path fill="#f8cf6d" fill-opacity="1" d="M175.706,148.363L75.381,148.363C74.276,148.363,73.381,147.468,73.381,146.363L73.381,76.11C73.381,68,79.956,61.425,88.066,61.425L166.036,61.425C172.481,61.425,177.706,66.65,177.706,73.095L177.706,146.363C177.706,147.468,176.811,148.363,175.706,148.363Z" /></g><g id="Group 2"><path fill="#ee7231" fill-opacity="1" d="M84.973,61.425L166.114,61.425C172.516,61.425,177.706,66.615,177.706,73.017L177.706,82.049C177.706,87.038,174.513,91.468,169.78,93.046L125.543,107.792L81.307,93.046C76.574,91.468,73.381,87.038,73.381,82.049L73.381,73.017C73.381,66.615,78.571,61.425,84.973,61.425Z" /></g><g id="Group 1"><path fill="#fffeff" fill-opacity="1" d="M130.339,119.383L120.748,119.383C120.196,119.383,119.748,118.935,119.748,118.383L119.748,97.2C119.748,96.648,120.196,96.2,120.748,96.2L130.339,96.2C130.891,96.2,131.339,96.648,131.339,97.2L131.339,118.383C131.339,118.935,130.891,119.383,130.339,119.383Z" /></g></g></g></g></g></g></g></g></g></g></g></g></g><g id="body"><g transform="translate(357.506,323.846)"><animateTransform repeatCount="indefinite" type="translate" attributeName="transform" dur="5.567s" begin="0s" calcMode="spline" values="357.506 323.846; 357.506 326.846; 357.506 323.846; 357.506 323.846; 357.506 326.846; 357.506 323.846; 357.506 323.846; 357.506 326.846; 357.506 323.846; 357.506 323.846; 357.506 326.846; 357.506 323.846" keyTimes="0; 0.049; 0.093; 0.352; 0.395; 0.444; 0.556; 0.605; 0.648; 0.907; 0.951; 1" keySplines="0.333 0 0.667 1; 0.333 0 0.667 1; 0.333 0 0.667 1; 0.333 0 0.667 1; 0.333 0 0.667 1; 0 0 1 1; 0.333 0 0.667 1; 0.333 0 0.667 1; 0.333 0 0.667 1; 0.333 0 0.667 1; 0.333 0 0.667 1" fill="freeze" /><g transform="rotate(1)"><animateTransform repeatCount="indefinite" type="rotate" attributeName="transform" dur="5.567s" begin="0s" calcMode="spline" values="1; -3; -3; 1; 1; -3; -3; 1" keyTimes="0; 0.093; 0.352; 0.444; 0.556; 0.648; 0.907; 1" keySplines="0.333 0 0.667 1; 0.3 0 0.667 1; 0.333 0 0.667 1; 0.31 0 0.667 1; 0.333 0 0.667 1; 0.3 0 0.667 1; 0.333 0 0.667 1" fill="freeze" /><g transform="scale(1,1) translate(-107.506,-73.846)"><g id="l hand"><g transform="translate(96.597,-65.57)"><g transform="rotate(15)"><animateTransform repeatCount="indefinite" type="rotate" attributeName="transform" dur="5.567s" begin="0s" calcMode="spline" values="15; 0; 0; 15; 15; 0; 0; 15" keyTimes="0; 0.093; 0.352; 0.444; 0.556; 0.648; 0.907; 1" keySplines="0.333 0 0.667 1; 0.3 0 0.667 1; 0.333 0 0.667 1; 0.31 0 0.667 1; 0.333 0 0.667 1; 0.3 0 0.667 1; 0.333 0 0.667 1" fill="freeze" /><g transform="scale(1,1) translate(-96.597,65.57)"><g id="Group 1"><path stroke-linejoin="miter" stroke-linecap="butt" stroke-width="9" stroke-opacity="1" stroke="#ffffff" fill="#2f79f0" fill-opacity="1" d="M172.722,-6.444L135.454,50.007C131.976,55.339,124.732,56.846,119.4,53.311C114.358,49.949,112.792,43.284,115.632,38.068L141.482,-9.574L97.491,-40.756C89.667,-46.32,87.813,-57.216,93.377,-65.04C98.941,-72.865,109.779,-74.719,117.603,-69.155C118.009,-68.865,118.472,-68.518,118.82,-68.228L169.186,-25.339L170.171,-24.527C175.561,-20.006,176.547,-12.182,172.722,-6.444Z" /></g></g></g></g></g></g></g></g></g><g id="body"><g transform="translate(357.506,323.846)"><animateTransform repeatCount="indefinite" type="translate" attributeName="transform" dur="5.567s" begin="0s" calcMode="spline" values="357.506 323.846; 357.506 326.846; 357.506 323.846; 357.506 323.846; 357.506 326.846; 357.506 323.846; 357.506 323.846; 357.506 326.846; 357.506 323.846; 357.506 323.846; 357.506 326.846; 357.506 323.846" keyTimes="0; 0.049; 0.093; 0.352; 0.395; 0.444; 0.556; 0.605; 0.648; 0.907; 0.951; 1" keySplines="0.333 0 0.667 1; 0.333 0 0.667 1; 0.333 0 0.667 1; 0.333 0 0.667 1; 0.333 0 0.667 1; 0 0 1 1; 0.333 0 0.667 1; 0.333 0 0.667 1; 0.333 0 0.667 1; 0.333 0 0.667 1; 0.333 0 0.667 1" fill="freeze" /><g transform="rotate(1)"><animateTransform repeatCount="indefinite" type="rotate" attributeName="transform" dur="5.567s" begin="0s" calcMode="spline" values="1; -3; -3; 1; 1; -3; -3; 1" keyTimes="0; 0.093; 0.352; 0.444; 0.556; 0.648; 0.907; 1" keySplines="0.333 0 0.667 1; 0.3 0 0.667 1; 0.333 0 0.667 1; 0.31 0 0.667 1; 0.333 0 0.667 1; 0.3 0 0.667 1; 0.333 0 0.667 1" fill="freeze" /><g transform="scale(1,1) translate(-107.506,-73.846)"><g id="head"><g transform="translate(102.36,-100.858)"><animateTransform repeatCount="indefinite" type="translate" attributeName="transform" dur="5.567s" begin="0s" calcMode="spline" values="102.36 -100.858; 102.329 -99.359; 102.36 -100.858; 102.36 -100.858; 102.329 -99.359; 102.36 -100.858; 102.36 -100.858; 102.329 -99.359; 102.36 -100.858; 102.36 -100.858; 102.329 -99.359; 102.36 -100.858" keyTimes="0; 0.049; 0.093; 0.352; 0.395; 0.444; 0.556; 0.605; 0.648; 0.907; 0.951; 1" keySplines="0.333 0 0.667 1; 0.333 0 0.667 1; 0.333 0 0.667 1; 0.333 0 0.667 1; 0.333 0 0.667 1; 0 0 1 1; 0.333 0 0.667 1; 0.333 0 0.667 1; 0.333 0 0.667 1; 0.333 0 0.667 1; 0.333 0 0.667 1" fill="freeze" /><g transform="rotate(6)"><animateTransform repeatCount="indefinite" type="rotate" attributeName="transform" dur="5.567s" begin="0s" calcMode="spline" values="6; -5; -5; 6; 6; -5; -5; 6" keyTimes="0; 0.093; 0.352; 0.444; 0.556; 0.648; 0.907; 1" keySplines="0.333 0 0.667 1; 0.3 0 0.667 1; 0.333 0 0.667 1; 0.31 0 0.667 1; 0.333 0 0.667 1; 0.3 0 0.667 1; 0.333 0 0.667 1" fill="freeze" /><g transform="scale(1,1) translate(-102.36,100.858)"><g id="Group 1"><path fill="#88b8f9" fill-opacity="1" d="M61.789,-141.429C61.789,-163.836,79.953,-182,102.36,-182C124.767,-182,142.931,-163.836,142.931,-141.429C142.931,-119.022,124.767,-100.858,102.36,-100.858C79.953,-100.858,61.789,-119.022,61.789,-141.429Z" /></g></g></g></g></g></g></g></g></g><g visibility="hidden" id="Layer 1"><animate repeatCount="indefinite" begin="0.4s" calcMode="discrete" fill="freeze" dur="2.367s" values="visible; hidden" keyTimes="0; 1" attributeName="visibility" /><g transform="translate(253.831,56.775)"><g transform="scale(0,0)"><animateTransform repeatCount="indefinite" type="scale" attributeName="transform" dur="2.333s" begin="0.4s" calcMode="spline" values="0 0; 1.1 1.1; 1 1; 1 1; 1.1 1.1; 0 0" keyTimes="0; 0.143; 0.214; 0.786; 0.857; 1" keySplines="0.333 0 0.667 1; 0.333 0 0.667 1; 0.3 0 0.667 1; 0.333 0 0.667 1; 0.333 0 0.667 1" fill="freeze" /><g transform="translate(-3.831,147.225)"><g id="Group 2"><path fill="#ee7231" fill-opacity="1" d="M38.606,-147.225C38.606,-166.431,23.037,-182,3.831,-182C-15.375,-182,-30.944,-166.431,-30.944,-147.225C-30.944,-128.019,-15.375,-112.45,3.831,-112.45C23.037,-112.45,38.606,-128.019,38.606,-147.225Z" /></g></g></g></g></g><g transform="matrix(1,0,0,1,250,204)" visibility="hidden" id="Group 1"><animate repeatCount="indefinite" begin="0.667s" calcMode="discrete" fill="freeze" dur="1.733s" values="visible; hidden" keyTimes="0; 1" attributeName="visibility" /><g id="Group 1"><g id="Group 1"><path fill="#fffeff" fill-opacity="1" d="M3.831,-129.837C2.348,-129.837,0.865,-130.403,-0.267,-131.535L-11.859,-143.127C-14.123,-145.391,-14.123,-149.059,-11.859,-151.323C-9.595,-153.587,-5.927,-153.587,-3.663,-151.323L3.831,-143.829L17.12,-157.119C19.384,-159.383,23.052,-159.383,25.316,-157.119C27.58,-154.855,27.58,-151.187,25.316,-148.923L7.929,-131.535C6.797,-130.403,5.314,-129.837,3.831,-129.837Z" /></g></g></g><g transform="matrix(1,0,0,1,250,204)" visibility="hidden" id="Shape Layer 1"><animate repeatCount="indefinite" begin="0.667s" calcMode="discrete" fill="freeze" dur="1.733s" values="visible; hidden" keyTimes="0; 1" attributeName="visibility" /><g id="Shape 1"><path stroke-linejoin="miter" stroke-linecap="round" stroke-width="14" stroke-opacity="1" stroke="#84f05e" d="M-8.5,-148.5L4,-137L22.5,-154.75" /></g></g><g visibility="hidden" id="Layer 2"><animate repeatCount="indefinite" begin="3.4s" calcMode="discrete" fill="freeze" dur="2.367s" values="visible; hidden" keyTimes="0; 1" attributeName="visibility" /><g transform="translate(253.831,56.775)"><g transform="scale(0,0)"><animateTransform repeatCount="indefinite" type="scale" attributeName="transform" dur="2.333s" begin="3.4s" calcMode="spline" values="0 0; 1.1 1.1; 1 1; 1 1; 1.1 1.1; 0 0" keyTimes="0; 0.143; 0.214; 0.786; 0.857; 1" keySplines="0.333 0 0.667 1; 0.333 0 0.667 1; 0.3 0 0.667 1; 0.333 0 0.667 1; 0.333 0 0.667 1" fill="freeze" /><g transform="translate(-3.831,147.225)"><g id="Group 2"><path fill="#ee7231" fill-opacity="1" d="M38.606,-147.225C38.606,-166.431,23.037,-182,3.831,-182C-15.375,-182,-30.944,-166.431,-30.944,-147.225C-30.944,-128.019,-15.375,-112.45,3.831,-112.45C23.037,-112.45,38.606,-128.019,38.606,-147.225Z" /></g></g></g></g></g><g transform="matrix(1,0,0,1,250,204)" visibility="hidden" id="Group 2"><animate repeatCount="indefinite" begin="3.667s" calcMode="discrete" fill="freeze" dur="1.733s" values="visible; hidden" keyTimes="0; 1" attributeName="visibility" /><g id="Group 1"><g id="Group 1"><path fill="#fffeff" fill-opacity="1" d="M3.831,-129.837C2.348,-129.837,0.865,-130.403,-0.267,-131.535L-11.859,-143.127C-14.123,-145.391,-14.123,-149.059,-11.859,-151.323C-9.595,-153.587,-5.927,-153.587,-3.663,-151.323L3.831,-143.829L17.12,-157.119C19.384,-159.383,23.052,-159.383,25.316,-157.119C27.58,-154.855,27.58,-151.187,25.316,-148.923L7.929,-131.535C6.797,-130.403,5.314,-129.837,3.831,-129.837Z" /></g></g></g><g transform="matrix(1,0,0,1,250,204)" visibility="hidden" id="Shape Layer 2"><animate repeatCount="indefinite" begin="3.667s" calcMode="discrete" fill="freeze" dur="1.733s" values="visible; hidden" keyTimes="0; 1" attributeName="visibility" /><g id="Shape 1"><path stroke-linejoin="miter" stroke-linecap="round" stroke-width="14" stroke-opacity="1" stroke="#84f05e" d="M-8.5,-148.5L4,-137L22.5,-154.75" /></g></g></svg>