<?xml version="1.0" encoding="utf-8"?><svg fill="none" viewBox="0 0 1080 1080" xmlns="http://www.w3.org/2000/svg"><defs /><g transform="matrix(1.196,0,0,1.196,515,95.093)" id="Background Circle"><g id="Ellipse 1" transform="matrix(1,0,0,1,22.594,673.222)"><ellipse ry="488.0335" rx="488.0335" cy="0" cx="0" fill="#ebf5ff" fill-opacity="1" /></g></g><g transform="matrix(1.21,0,0,1.21,540,440)" id="Null 1"><g visibility="hidden" id="Smoke Particle 01"><animate repeatCount="indefinite" begin="0.76s" calcMode="discrete" fill="freeze" dur="1.6s" values="visible; hidden" keyTimes="0; 1" attributeName="visibility" /><g transform="translate(-36,405.5)"><animateTransform repeatCount="indefinite" type="translate" attributeName="transform" dur="1.56s" begin="0.76s" calcMode="spline" values="-36 405.5; -408 559.5; -659 120.5" keyTimes="0; 0.513; 1" keySplines="0 0 1 1; 0 0 1 1" fill="freeze" /><g transform="scale(0,0)"><animateTransform repeatCount="indefinite" type="scale" attributeName="transform" dur="0.4s" begin="0.76s" calcMode="spline" values="0 0; 1 1" keyTimes="0; 1" keySplines="0.333 0 0.667 1" fill="freeze" /><g transform="translate(2,-537.5)"><g id="Ellipse 1" transform="matrix(1,0,0,1,-2,537.5)"><ellipse ry="108" rx="108" cy="0" cx="0" fill="#ffffff" fill-opacity="1" /></g></g></g></g></g></g><g transform="matrix(1.21,0,0,1.21,540,440)" id="Null 1"><g visibility="hidden" id="Smoke Particle 02"><animate repeatCount="indefinite" begin="0.76s" calcMode="discrete" fill="freeze" dur="1.6s" values="visible; hidden" keyTimes="0; 1" attributeName="visibility" /><g transform="translate(-16,289.5)"><animateTransform repeatCount="indefinite" type="translate" attributeName="transform" dur="1.56s" begin="0.76s" calcMode="spline" values="-16 289.5; -38 555.5; -587 536.5" keyTimes="0; 0.513; 1" keySplines="0 0 1 1; 0 0 1 1" fill="freeze" /><g transform="scale(0,0)"><animateTransform repeatCount="indefinite" type="scale" attributeName="transform" dur="0.4s" begin="0.76s" calcMode="spline" values="0 0; 1 1" keyTimes="0; 1" keySplines="0.333 0 0.667 1" fill="freeze" /><g transform="translate(2,-537.5)"><g id="Ellipse 1" transform="matrix(1,0,0,1,-2,537.5)"><ellipse ry="108" rx="108" cy="0" cx="0" fill="#ffffff" fill-opacity="1" /></g></g></g></g></g></g><g transform="matrix(1.21,0,0,1.21,540,440)" id="Null 1"><g visibility="hidden" id="Smoke Particle 03"><animate repeatCount="indefinite" begin="0.92s" calcMode="discrete" fill="freeze" dur="1.6s" values="visible; hidden" keyTimes="0; 1" attributeName="visibility" /><g transform="translate(-36,405.5)"><animateTransform repeatCount="indefinite" type="translate" attributeName="transform" dur="1.56s" begin="0.92s" calcMode="spline" values="-36 405.5; -408 559.5; -659 120.5" keyTimes="0; 0.513; 1" keySplines="0 0 1 1; 0 0 1 1" fill="freeze" /><g transform="scale(0,0)"><animateTransform repeatCount="indefinite" type="scale" attributeName="transform" dur="0.92s" begin="0.92s" calcMode="spline" values="0 0; 1 1; 0.67 0.67" keyTimes="0; 0.435; 1" keySplines="0.333 0 0.667 1; 0.333 0 0.833 1" fill="freeze" /><g transform="translate(2,-537.5)"><g id="Ellipse 1" transform="matrix(1,0,0,1,-2,537.5)"><ellipse ry="108" rx="108" cy="0" cx="0" fill="#ffffff" fill-opacity="1" /></g></g></g></g></g></g><g transform="matrix(1.21,0,0,1.21,540,440)" id="Null 1"><g visibility="hidden" id="Smoke Particle 04"><animate repeatCount="indefinite" begin="0.76s" calcMode="discrete" fill="freeze" dur="1.6s" values="visible; hidden" keyTimes="0; 1" attributeName="visibility" /><g transform="translate(-32,205.5)"><animateTransform repeatCount="indefinite" type="translate" attributeName="transform" dur="1.56s" begin="0.76s" calcMode="spline" values="-32 205.5; -408 559.5; -623 314.5" keyTimes="0; 0.513; 1" keySplines="0 0 1 1; 0 0 1 1" fill="freeze" /><g transform="scale(0,0)"><animateTransform repeatCount="indefinite" type="scale" attributeName="transform" dur="1.56s" begin="0.76s" calcMode="spline" values="0 0; 0.5 0.5; 0.67 0.67" keyTimes="0; 0.256; 1" keySplines="0.333 0 0.667 1; 0.333 0 0.833 1" fill="freeze" /><g transform="translate(2,-537.5)"><g id="Ellipse 1" transform="matrix(1,0,0,1,-2,537.5)"><ellipse ry="108" rx="108" cy="0" cx="0" fill="#ffffff" fill-opacity="1" /></g></g></g></g></g></g><g transform="matrix(1.21,0,0,1.21,540,440)" id="Null 1"><g visibility="hidden" id="Smoke Particle 05"><animate repeatCount="indefinite" begin="0.92s" calcMode="discrete" fill="freeze" dur="1.6s" values="visible; hidden" keyTimes="0; 1" attributeName="visibility" /><g transform="translate(-36,405.5)"><animateTransform repeatCount="indefinite" type="translate" attributeName="transform" dur="1.56s" begin="0.92s" calcMode="spline" values="-36 405.5; 360 561.5; 659 146.5" keyTimes="0; 0.513; 1" keySplines="0 0 1 1; 0 0 1 1" fill="freeze" /><g transform="scale(0,0)"><animateTransform repeatCount="indefinite" type="scale" attributeName="transform" dur="0.92s" begin="0.92s" calcMode="spline" values="0 0; 1 1; 0.67 0.67" keyTimes="0; 0.435; 1" keySplines="0.333 0 0.667 1; 0.333 0 0.833 1" fill="freeze" /><g transform="translate(2,-537.5)"><g id="Ellipse 1" transform="matrix(1,0,0,1,-2,537.5)"><ellipse ry="108" rx="108" cy="0" cx="0" fill="#ffffff" fill-opacity="1" /></g></g></g></g></g></g><g transform="matrix(1.21,0,0,1.21,540,440)" id="Null 1"><g visibility="hidden" id="Smoke Particle 06"><animate repeatCount="indefinite" begin="0.76s" calcMode="discrete" fill="freeze" dur="1.6s" values="visible; hidden" keyTimes="0; 1" attributeName="visibility" /><g transform="translate(-32,205.5)"><animateTransform repeatCount="indefinite" type="translate" attributeName="transform" dur="1.56s" begin="0.76s" calcMode="spline" values="-32 205.5; 146 513.5; 577 370.5" keyTimes="0; 0.513; 1" keySplines="0 0 1 1; 0 0 1 1" fill="freeze" /><g transform="scale(0,0)"><animateTransform repeatCount="indefinite" type="scale" attributeName="transform" dur="1.56s" begin="0.76s" calcMode="spline" values="0 0; 0.5 0.5; 0.67 0.67" keyTimes="0; 0.256; 1" keySplines="0.333 0 0.667 1; 0.333 0 0.833 1" fill="freeze" /><g transform="translate(2,-537.5)"><g id="Ellipse 1" transform="matrix(1,0,0,1,-2,537.5)"><ellipse ry="108" rx="108" cy="0" cx="0" fill="#ffffff" fill-opacity="1" /></g></g></g></g></g></g><g transform="matrix(1.21,0,0,1.21,540,440)" id="Null 1"><g visibility="hidden" id="Smoke Particle 07"><animate repeatCount="indefinite" begin="0.92s" calcMode="discrete" fill="freeze" dur="1.6s" values="visible; hidden" keyTimes="0; 1" attributeName="visibility" /><g transform="translate(-14,63.5)"><animateTransform repeatCount="indefinite" type="translate" attributeName="transform" dur="1.56s" begin="0.92s" calcMode="spline" values="-14 63.5; 194 567.5; 549 592.5" keyTimes="0; 0.513; 1" keySplines="0 0 1 1; 0 0 1 1" fill="freeze" /><g transform="scale(0,0)"><animateTransform repeatCount="indefinite" type="scale" attributeName="transform" dur="0.92s" begin="0.92s" calcMode="spline" values="0 0; 0.5 0.5; 0.67 0.67" keyTimes="0; 0.435; 1" keySplines="0.333 0 0.667 1; 0.333 0 0.833 1" fill="freeze" /><g transform="translate(2,-537.5)"><g id="Ellipse 1" transform="matrix(1,0,0,1,-2,537.5)"><ellipse ry="108" rx="108" cy="0" cx="0" fill="#ffffff" fill-opacity="1" /></g></g></g></g></g></g><g transform="matrix(1.21,0,0,1.21,540,440)" id="Null 1"><g visibility="hidden" id="Smoke Particle 08"><animate repeatCount="indefinite" begin="0.76s" calcMode="discrete" fill="freeze" dur="1.6s" values="visible; hidden" keyTimes="0; 1" attributeName="visibility" /><g transform="translate(-36,405.5)"><animateTransform repeatCount="indefinite" type="translate" attributeName="transform" dur="1.56s" begin="0.76s" calcMode="spline" values="-36 405.5; 366 577.5; 619 2.5" keyTimes="0; 0.513; 1" keySplines="0 0 1 1; 0 0 1 1" fill="freeze" /><g transform="scale(0,0)"><animateTransform repeatCount="indefinite" type="scale" attributeName="transform" dur="0.4s" begin="0.76s" calcMode="spline" values="0 0; 1 1" keyTimes="0; 1" keySplines="0.333 0 0.667 1" fill="freeze" /><g transform="translate(2,-537.5)"><g id="Ellipse 1" transform="matrix(1,0,0,1,-2,537.5)"><ellipse ry="108" rx="108" cy="0" cx="0" fill="#ffffff" fill-opacity="1" /></g></g></g></g></g></g><g transform="matrix(1.21,0,0,1.21,540,440)" id="Null 1"><g visibility="hidden" id="Smoke Particle 09"><animate repeatCount="indefinite" begin="1.16s" calcMode="discrete" fill="freeze" dur="1.6s" values="visible; hidden" keyTimes="0; 1" attributeName="visibility" /><g transform="translate(-16,289.5)"><animateTransform repeatCount="indefinite" type="translate" attributeName="transform" dur="1.56s" begin="1.16s" calcMode="spline" values="-16 289.5; -38 555.5; -587 536.5" keyTimes="0; 0.513; 1" keySplines="0 0 1 1; 0 0 1 1" fill="freeze" /><g transform="scale(0,0)"><animateTransform repeatCount="indefinite" type="scale" attributeName="transform" dur="0.4s" begin="1.16s" calcMode="spline" values="0 0; 1 1" keyTimes="0; 1" keySplines="0.333 0 0.667 1" fill="freeze" /><g transform="translate(2,-537.5)"><g id="Ellipse 1" transform="matrix(1,0,0,1,-2,537.5)"><ellipse ry="108" rx="108" cy="0" cx="0" fill="#ffffff" fill-opacity="1" /></g></g></g></g></g></g><g transform="matrix(1.21,0,0,1.21,540,440)" id="Null 1"><g visibility="hidden" id="Smoke Particle 10"><animate repeatCount="indefinite" begin="1.44s" calcMode="discrete" fill="freeze" dur="1.6s" values="visible; visible" keyTimes="0; 1" attributeName="visibility" /><g transform="translate(-16,289.5)"><animateTransform repeatCount="indefinite" type="translate" attributeName="transform" dur="1.56s" begin="1.44s" calcMode="spline" values="-16 289.5; -38 555.5; -587 536.5" keyTimes="0; 0.513; 1" keySplines="0 0 1 1; 0 0 1 1" fill="freeze" /><g transform="scale(0,0)"><animateTransform repeatCount="indefinite" type="scale" attributeName="transform" dur="0.4s" begin="1.44s" calcMode="spline" values="0 0; 1 1" keyTimes="0; 1" keySplines="0.333 0 0.667 1" fill="freeze" /><g transform="translate(2,-537.5)"><g id="Ellipse 1" transform="matrix(1,0,0,1,-2,537.5)"><ellipse ry="108" rx="108" cy="0" cx="0" fill="#ffffff" fill-opacity="1" /></g></g></g></g></g></g><g transform="matrix(1.21,0,0,1.21,540,440)" id="Null 1"><g visibility="hidden" id="Smoke Particle 11"><animate repeatCount="indefinite" begin="0.96s" calcMode="discrete" fill="freeze" dur="1.6s" values="visible; hidden" keyTimes="0; 1" attributeName="visibility" /><g transform="translate(6,191.5)"><animateTransform repeatCount="indefinite" type="translate" attributeName="transform" dur="1.56s" begin="0.96s" calcMode="spline" values="6 191.5; -41.722 485.307; -376 587.5; -659 120.5" keyTimes="0; 0.282; 0.513; 1" keySplines="0 0 1 1; 0 0 1 1; 0 0 1 1" fill="freeze" /><g transform="scale(0,0)"><animateTransform repeatCount="indefinite" type="scale" attributeName="transform" dur="0.4s" begin="0.96s" calcMode="spline" values="0 0; 1 1" keyTimes="0; 1" keySplines="0.333 0 0.667 1" fill="freeze" /><g transform="translate(2,-537.5)"><g id="Ellipse 1" transform="matrix(1,0,0,1,-2,537.5)"><ellipse ry="108" rx="108" cy="0" cx="0" fill="#ffffff" fill-opacity="1" /></g></g></g></g></g></g><g transform="matrix(1.21,0,0,1.21,540,440)" id="Null 1"><g visibility="hidden" id="Smoke Particle 12"><animate repeatCount="indefinite" begin="1.36s" calcMode="discrete" fill="freeze" dur="1.6s" values="visible; hidden" keyTimes="0; 1" attributeName="visibility" /><g transform="translate(-36,405.5)"><animateTransform repeatCount="indefinite" type="translate" attributeName="transform" dur="1.56s" begin="1.36s" calcMode="spline" values="-36 405.5; -408 559.5; -659 120.5" keyTimes="0; 0.513; 1" keySplines="0 0 1 1; 0 0 1 1" fill="freeze" /><g transform="scale(0,0)"><animateTransform repeatCount="indefinite" type="scale" attributeName="transform" dur="0.92s" begin="1.36s" calcMode="spline" values="0 0; 1 1; 0.67 0.67" keyTimes="0; 0.435; 1" keySplines="0.333 0 0.667 1; 0.333 0 0.833 1" fill="freeze" /><g transform="translate(2,-537.5)"><g id="Ellipse 1" transform="matrix(1,0,0,1,-2,537.5)"><ellipse ry="108" rx="108" cy="0" cx="0" fill="#ffffff" fill-opacity="1" /></g></g></g></g></g></g><g transform="matrix(1.21,0,0,1.21,540,440)" id="Null 1"><g visibility="hidden" id="Smoke Particle 13"><animate repeatCount="indefinite" begin="1.04s" calcMode="discrete" fill="freeze" dur="1.6s" values="visible; hidden" keyTimes="0; 1" attributeName="visibility" /><g transform="translate(-32,205.5)"><animateTransform repeatCount="indefinite" type="translate" attributeName="transform" dur="1.56s" begin="1.04s" calcMode="spline" values="-32 205.5; -408 559.5; -623 314.5" keyTimes="0; 0.513; 1" keySplines="0 0 1 1; 0 0 1 1" fill="freeze" /><g transform="scale(0,0)"><animateTransform repeatCount="indefinite" type="scale" attributeName="transform" dur="1.56s" begin="1.04s" calcMode="spline" values="0 0; 0.5 0.5; 0.67 0.67" keyTimes="0; 0.256; 1" keySplines="0.333 0 0.667 1; 0.333 0 0.833 1" fill="freeze" /><g transform="translate(2,-537.5)"><g id="Ellipse 1" transform="matrix(1,0,0,1,-2,537.5)"><ellipse ry="108" rx="108" cy="0" cx="0" fill="#ffffff" fill-opacity="1" /></g></g></g></g></g></g><g transform="matrix(1.21,0,0,1.21,540,440)" id="Null 1"><g visibility="hidden" id="Smoke Particle 14"><animate repeatCount="indefinite" begin="1.2s" calcMode="discrete" fill="freeze" dur="1.6s" values="visible; hidden" keyTimes="0; 1" attributeName="visibility" /><g transform="translate(2,77.5)"><animateTransform repeatCount="indefinite" type="translate" attributeName="transform" dur="0.8s" begin="1.2s" calcMode="spline" values="2 77.5; 17.804 410.975; 256 665.5" keyTimes="0; 0.5; 1" keySplines="0 0 1 1; 0 0 1 1" fill="freeze" /><g transform="scale(0,0)"><animateTransform repeatCount="indefinite" type="scale" attributeName="transform" dur="0.92s" begin="1.2s" calcMode="spline" values="0 0; 0.5 0.5; 0.67 0.67" keyTimes="0; 0.435; 1" keySplines="0.333 0 0.667 1; 0.333 0 0.833 1" fill="freeze" /><g transform="translate(2,-537.5)"><g id="Ellipse 1" transform="matrix(1,0,0,1,-2,537.5)"><ellipse ry="108" rx="108" cy="0" cx="0" fill="#ffffff" fill-opacity="1" /></g></g></g></g></g></g><g transform="matrix(1.21,0,0,1.21,540,440)" id="Null 1"><g visibility="hidden" id="Smoke Particle 15"><animate repeatCount="indefinite" begin="1.04s" calcMode="discrete" fill="freeze" dur="1.6s" values="visible; hidden" keyTimes="0; 1" attributeName="visibility" /><g transform="translate(-32,205.5)"><animateTransform repeatCount="indefinite" type="translate" attributeName="transform" dur="1.56s" begin="1.04s" calcMode="spline" values="-32 205.5; 146 513.5; 577 370.5" keyTimes="0; 0.513; 1" keySplines="0 0 1 1; 0 0 1 1" fill="freeze" /><g transform="scale(0,0)"><animateTransform repeatCount="indefinite" type="scale" attributeName="transform" dur="1.56s" begin="1.04s" calcMode="spline" values="0 0; 0.99 0.99; 0.67 0.67" keyTimes="0; 0.256; 1" keySplines="0.333 0 0.667 1; 0.333 0 0.833 1" fill="freeze" /><g transform="translate(2,-537.5)"><g id="Ellipse 1" transform="matrix(1,0,0,1,-2,537.5)"><ellipse ry="108" rx="108" cy="0" cx="0" fill="#ffffff" fill-opacity="1" /></g></g></g></g></g></g><g transform="matrix(1.21,0,0,1.21,540,440)" id="Null 1"><g visibility="hidden" id="Smoke Particle 16"><animate repeatCount="indefinite" begin="1.2s" calcMode="discrete" fill="freeze" dur="1.6s" values="visible; hidden" keyTimes="0; 1" attributeName="visibility" /><g transform="translate(-14,63.5)"><animateTransform repeatCount="indefinite" type="translate" attributeName="transform" dur="1.56s" begin="1.2s" calcMode="spline" values="-14 63.5; 194 567.5; 549 592.5" keyTimes="0; 0.513; 1" keySplines="0 0 1 1; 0 0 1 1" fill="freeze" /><g transform="scale(0,0)"><animateTransform repeatCount="indefinite" type="scale" attributeName="transform" dur="0.92s" begin="1.2s" calcMode="spline" values="0 0; 0.5 0.5; 0.67 0.67" keyTimes="0; 0.435; 1" keySplines="0.333 0 0.667 1; 0.333 0 0.833 1" fill="freeze" /><g transform="translate(2,-537.5)"><g id="Ellipse 1" transform="matrix(1,0,0,1,-2,537.5)"><ellipse ry="108" rx="108" cy="0" cx="0" fill="#ffffff" fill-opacity="1" /></g></g></g></g></g></g><g transform="matrix(1.21,0,0,1.21,540,440)" id="Null 1"><g visibility="hidden" id="Smoke Particle 17"><animate repeatCount="indefinite" begin="1.04s" calcMode="discrete" fill="freeze" dur="1.6s" values="visible; hidden" keyTimes="0; 1" attributeName="visibility" /><g transform="translate(-36,405.5)"><animateTransform repeatCount="indefinite" type="translate" attributeName="transform" dur="1.56s" begin="1.04s" calcMode="spline" values="-36 405.5; 366 577.5; 619 2.5" keyTimes="0; 0.513; 1" keySplines="0 0 1 1; 0 0 1 1" fill="freeze" /><g transform="scale(0,0)"><animateTransform repeatCount="indefinite" type="scale" attributeName="transform" dur="0.4s" begin="1.04s" calcMode="spline" values="0 0; 1 1" keyTimes="0; 1" keySplines="0.333 0 0.667 1" fill="freeze" /><g transform="translate(2,-537.5)"><g id="Ellipse 1" transform="matrix(1,0,0,1,-2,537.5)"><ellipse ry="108" rx="108" cy="0" cx="0" fill="#ffffff" fill-opacity="1" /></g></g></g></g></g></g><g transform="matrix(1.21,0,0,1.21,540,440)" id="Null 1"><g visibility="hidden" id="Smoke Particle 18"><animate repeatCount="indefinite" begin="1.4s" calcMode="discrete" fill="freeze" dur="1.6s" values="visible; visible" keyTimes="0; 1" attributeName="visibility" /><g transform="translate(-36,405.5)"><animateTransform repeatCount="indefinite" type="translate" attributeName="transform" dur="1.56s" begin="1.4s" calcMode="spline" values="-36 405.5; -408 559.5; -659 120.5" keyTimes="0; 0.513; 1" keySplines="0 0 1 1; 0 0 1 1" fill="freeze" /><g transform="scale(0,0)"><animateTransform repeatCount="indefinite" type="scale" attributeName="transform" dur="0.4s" begin="1.4s" calcMode="spline" values="0 0; 1 1" keyTimes="0; 1" keySplines="0.333 0 0.667 1" fill="freeze" /><g transform="translate(2,-537.5)"><g id="Ellipse 1" transform="matrix(1,0,0,1,-2,537.5)"><ellipse ry="108" rx="108" cy="0" cx="0" fill="#ffffff" fill-opacity="1" /></g></g></g></g></g></g><g transform="matrix(1.21,0,0,1.21,540,440)" id="Null 1"><g visibility="hidden" id="Smoke Particle 19"><animate repeatCount="indefinite" begin="1.56s" calcMode="discrete" fill="freeze" dur="1.6s" values="visible; visible" keyTimes="0; 1" attributeName="visibility" /><g transform="translate(-36,405.5)"><animateTransform repeatCount="indefinite" type="translate" attributeName="transform" dur="1.56s" begin="1.56s" calcMode="spline" values="-36 405.5; -408 559.5; -659 120.5" keyTimes="0; 0.513; 1" keySplines="0 0 1 1; 0 0 1 1" fill="freeze" /><g transform="scale(0,0)"><animateTransform repeatCount="indefinite" type="scale" attributeName="transform" dur="0.92s" begin="1.56s" calcMode="spline" values="0 0; 1 1; 0.67 0.67" keyTimes="0; 0.435; 1" keySplines="0.333 0 0.667 1; 0.333 0 0.833 1" fill="freeze" /><g transform="translate(2,-537.5)"><g id="Ellipse 1" transform="matrix(1,0,0,1,-2,537.5)"><ellipse ry="108" rx="108" cy="0" cx="0" fill="#ffffff" fill-opacity="1" /></g></g></g></g></g></g><g transform="matrix(1.21,0,0,1.21,540,440)" id="Null 1"><g visibility="hidden" id="Smoke Particle 20"><animate repeatCount="indefinite" begin="1.4s" calcMode="discrete" fill="freeze" dur="1.6s" values="visible; visible" keyTimes="0; 1" attributeName="visibility" /><g transform="translate(-32,205.5)"><animateTransform repeatCount="indefinite" type="translate" attributeName="transform" dur="1.56s" begin="1.4s" calcMode="spline" values="-32 205.5; -408 559.5; -623 314.5" keyTimes="0; 0.513; 1" keySplines="0 0 1 1; 0 0 1 1" fill="freeze" /><g transform="scale(0,0)"><animateTransform repeatCount="indefinite" type="scale" attributeName="transform" dur="1.56s" begin="1.4s" calcMode="spline" values="0 0; 0.5 0.5; 0.67 0.67" keyTimes="0; 0.256; 1" keySplines="0.333 0 0.667 1; 0.333 0 0.833 1" fill="freeze" /><g transform="translate(2,-537.5)"><g id="Ellipse 1" transform="matrix(1,0,0,1,-2,537.5)"><ellipse ry="108" rx="108" cy="0" cx="0" fill="#ffffff" fill-opacity="1" /></g></g></g></g></g></g><g transform="matrix(1.21,0,0,1.21,540,440)" id="Null 1"><g visibility="hidden" id="Smoke Particle 21"><animate repeatCount="indefinite" begin="1.56s" calcMode="discrete" fill="freeze" dur="1.6s" values="visible; visible" keyTimes="0; 1" attributeName="visibility" /><g transform="translate(-36,405.5)"><animateTransform repeatCount="indefinite" type="translate" attributeName="transform" dur="1.56s" begin="1.56s" calcMode="spline" values="-36 405.5; 360 561.5; 659 146.5" keyTimes="0; 0.513; 1" keySplines="0 0 1 1; 0 0 1 1" fill="freeze" /><g transform="scale(0,0)"><animateTransform repeatCount="indefinite" type="scale" attributeName="transform" dur="0.92s" begin="1.56s" calcMode="spline" values="0 0; 1 1; 0.67 0.67" keyTimes="0; 0.435; 1" keySplines="0.333 0 0.667 1; 0.333 0 0.833 1" fill="freeze" /><g transform="translate(2,-537.5)"><g id="Ellipse 1" transform="matrix(1,0,0,1,-2,537.5)"><ellipse ry="108" rx="108" cy="0" cx="0" fill="#ffffff" fill-opacity="1" /></g></g></g></g></g></g><g transform="matrix(1.21,0,0,1.21,540,440)" id="Null 1"><g visibility="hidden" id="Smoke Particle 22"><animate repeatCount="indefinite" begin="1.4s" calcMode="discrete" fill="freeze" dur="1.6s" values="visible; visible" keyTimes="0; 1" attributeName="visibility" /><g transform="translate(-32,205.5)"><animateTransform repeatCount="indefinite" type="translate" attributeName="transform" dur="1.56s" begin="1.4s" calcMode="spline" values="-32 205.5; 146 513.5; 577 370.5" keyTimes="0; 0.513; 1" keySplines="0 0 1 1; 0 0 1 1" fill="freeze" /><g transform="scale(0,0)"><animateTransform repeatCount="indefinite" type="scale" attributeName="transform" dur="1.56s" begin="1.4s" calcMode="spline" values="0 0; 0.5 0.5; 0.67 0.67" keyTimes="0; 0.256; 1" keySplines="0.333 0 0.667 1; 0.333 0 0.833 1" fill="freeze" /><g transform="translate(2,-537.5)"><g id="Ellipse 1" transform="matrix(1,0,0,1,-2,537.5)"><ellipse ry="108" rx="108" cy="0" cx="0" fill="#ffffff" fill-opacity="1" /></g></g></g></g></g></g><g transform="matrix(1.21,0,0,1.21,540,440)" id="Null 1"><g visibility="hidden" id="Smoke Particle 23"><animate repeatCount="indefinite" begin="1.56s" calcMode="discrete" fill="freeze" dur="1.6s" values="visible; visible" keyTimes="0; 1" attributeName="visibility" /><g transform="translate(-14,63.5)"><animateTransform repeatCount="indefinite" type="translate" attributeName="transform" dur="1.56s" begin="1.56s" calcMode="spline" values="-14 63.5; 194 567.5; 549 592.5" keyTimes="0; 0.513; 1" keySplines="0 0 1 1; 0 0 1 1" fill="freeze" /><g transform="scale(0,0)"><animateTransform repeatCount="indefinite" type="scale" attributeName="transform" dur="0.92s" begin="1.56s" calcMode="spline" values="0 0; 0.5 0.5; 0.67 0.67" keyTimes="0; 0.435; 1" keySplines="0.333 0 0.667 1; 0.333 0 0.833 1" fill="freeze" /><g transform="translate(2,-537.5)"><g id="Ellipse 1" transform="matrix(1,0,0,1,-2,537.5)"><ellipse ry="108" rx="108" cy="0" cx="0" fill="#ffffff" fill-opacity="1" /></g></g></g></g></g></g><g transform="matrix(1.21,0,0,1.21,540,440)" id="Null 1"><g visibility="hidden" id="Smoke Particle 24"><animate repeatCount="indefinite" begin="1.4s" calcMode="discrete" fill="freeze" dur="1.6s" values="visible; visible" keyTimes="0; 1" attributeName="visibility" /><g transform="translate(-36,405.5)"><animateTransform repeatCount="indefinite" type="translate" attributeName="transform" dur="1.56s" begin="1.4s" calcMode="spline" values="-36 405.5; 366 577.5; 619 2.5" keyTimes="0; 0.513; 1" keySplines="0 0 1 1; 0 0 1 1" fill="freeze" /><g transform="scale(0,0)"><animateTransform repeatCount="indefinite" type="scale" attributeName="transform" dur="0.4s" begin="1.4s" calcMode="spline" values="0 0; 1 1" keyTimes="0; 1" keySplines="0.333 0 0.667 1" fill="freeze" /><g transform="translate(2,-537.5)"><g id="Ellipse 1" transform="matrix(1,0,0,1,-2,537.5)"><ellipse ry="108" rx="108" cy="0" cx="0" fill="#ffffff" fill-opacity="1" /></g></g></g></g></g></g><g transform="matrix(1.21,0,0,1.21,540,440)" id="Null 1"><g visibility="hidden" id="Smoke Particle 25"><animate repeatCount="indefinite" begin="1.64s" calcMode="discrete" fill="freeze" dur="1.6s" values="visible; visible" keyTimes="0; 1" attributeName="visibility" /><g transform="translate(6,191.5)"><animateTransform repeatCount="indefinite" type="translate" attributeName="transform" dur="1.56s" begin="1.64s" calcMode="spline" values="6 191.5; -41.722 485.307; -376 587.5; -675 162.5" keyTimes="0; 0.282; 0.513; 1" keySplines="0 0 1 1; 0 0 1 1; 0 0 1 1" fill="freeze" /><g transform="scale(0,0)"><animateTransform repeatCount="indefinite" type="scale" attributeName="transform" dur="0.4s" begin="1.64s" calcMode="spline" values="0 0; 1 1" keyTimes="0; 1" keySplines="0.333 0 0.667 1" fill="freeze" /><g transform="translate(2,-537.5)"><g id="Ellipse 1" transform="matrix(1,0,0,1,-2,537.5)"><ellipse ry="108" rx="108" cy="0" cx="0" fill="#ffffff" fill-opacity="1" /></g></g></g></g></g></g><g transform="matrix(1.21,0,0,1.21,540,440)" id="Null 1"><g visibility="hidden" id="Smoke Particle 26"><animate repeatCount="indefinite" begin="2.04s" calcMode="discrete" fill="freeze" dur="1.6s" values="visible; visible" keyTimes="0; 1" attributeName="visibility" /><g transform="translate(-36,405.5)"><animateTransform repeatCount="indefinite" type="translate" attributeName="transform" dur="1.56s" begin="2.04s" calcMode="spline" values="-36 405.5; -408 559.5; -695 184.5" keyTimes="0; 0.513; 1" keySplines="0 0 1 1; 0 0 1 1" fill="freeze" /><g transform="scale(0,0)"><animateTransform repeatCount="indefinite" type="scale" attributeName="transform" dur="0.92s" begin="2.04s" calcMode="spline" values="0 0; 1 1; 0.67 0.67" keyTimes="0; 0.435; 1" keySplines="0.333 0 0.667 1; 0.333 0 0.833 1" fill="freeze" /><g transform="translate(2,-537.5)"><g id="Ellipse 1" transform="matrix(1,0,0,1,-2,537.5)"><ellipse ry="108" rx="108" cy="0" cx="0" fill="#ffffff" fill-opacity="1" /></g></g></g></g></g></g><g transform="matrix(1.21,0,0,1.21,540,440)" id="Null 1"><g visibility="hidden" id="Smoke Particle 27"><animate repeatCount="indefinite" begin="1.72s" calcMode="discrete" fill="freeze" dur="1.6s" values="visible; visible" keyTimes="0; 1" attributeName="visibility" /><g transform="translate(-32,205.5)"><animateTransform repeatCount="indefinite" type="translate" attributeName="transform" dur="1.56s" begin="1.72s" calcMode="spline" values="-32 205.5; -408 559.5; -695 402.5" keyTimes="0; 0.513; 1" keySplines="0 0 1 1; 0 0 1 1" fill="freeze" /><g transform="scale(0,0)"><animateTransform repeatCount="indefinite" type="scale" attributeName="transform" dur="1.56s" begin="1.72s" calcMode="spline" values="0 0; 0.5 0.5; 0.67 0.67" keyTimes="0; 0.256; 1" keySplines="0.333 0 0.667 1; 0.333 0 0.833 1" fill="freeze" /><g transform="translate(2,-537.5)"><g id="Ellipse 1" transform="matrix(1,0,0,1,-2,537.5)"><ellipse ry="108" rx="108" cy="0" cx="0" fill="#ffffff" fill-opacity="1" /></g></g></g></g></g></g><g transform="matrix(1.21,0,0,1.21,540,440)" id="Null 1"><g visibility="hidden" id="Smoke Particle 28"><animate repeatCount="indefinite" begin="1.88s" calcMode="discrete" fill="freeze" dur="1.6s" values="visible; visible" keyTimes="0; 1" attributeName="visibility" /><g transform="translate(2,77.5)"><animateTransform repeatCount="indefinite" type="translate" attributeName="transform" dur="0.8s" begin="1.88s" calcMode="spline" values="2 77.5; 17.804 410.975; 292 677.5" keyTimes="0; 0.5; 1" keySplines="0 0 1 1; 0 0 1 1" fill="freeze" /><g transform="scale(0,0)"><animateTransform repeatCount="indefinite" type="scale" attributeName="transform" dur="0.92s" begin="1.88s" calcMode="spline" values="0 0; 0.5 0.5; 0.67 0.67" keyTimes="0; 0.435; 1" keySplines="0.333 0 0.667 1; 0.333 0 0.833 1" fill="freeze" /><g transform="translate(2,-537.5)"><g id="Ellipse 1" transform="matrix(1,0,0,1,-2,537.5)"><ellipse ry="108" rx="108" cy="0" cx="0" fill="#ffffff" fill-opacity="1" /></g></g></g></g></g></g><g transform="matrix(1.21,0,0,1.21,540,440)" id="Null 1"><g visibility="hidden" id="Smoke Particle 29"><animate repeatCount="indefinite" begin="1.72s" calcMode="discrete" fill="freeze" dur="1.6s" values="visible; visible" keyTimes="0; 1" attributeName="visibility" /><g transform="translate(-32,205.5)"><animateTransform repeatCount="indefinite" type="translate" attributeName="transform" dur="1.56s" begin="1.72s" calcMode="spline" values="-32 205.5; 174 559.5; 719 478.5" keyTimes="0; 0.513; 1" keySplines="0 0 1 1; 0 0 1 1" fill="freeze" /><g transform="scale(0,0)"><animateTransform repeatCount="indefinite" type="scale" attributeName="transform" dur="1.56s" begin="1.72s" calcMode="spline" values="0 0; 0.99 0.99; 0.67 0.67" keyTimes="0; 0.256; 1" keySplines="0.333 0 0.667 1; 0.333 0 0.833 1" fill="freeze" /><g transform="translate(2,-537.5)"><g id="Ellipse 1" transform="matrix(1,0,0,1,-2,537.5)"><ellipse ry="108" rx="108" cy="0" cx="0" fill="#ffffff" fill-opacity="1" /></g></g></g></g></g></g><g transform="matrix(1.21,0,0,1.21,540,440)" id="Null 1"><g visibility="hidden" id="Smoke Particle 30"><animate repeatCount="indefinite" begin="1.88s" calcMode="discrete" fill="freeze" dur="1.6s" values="visible; visible" keyTimes="0; 1" attributeName="visibility" /><g transform="translate(-14,63.5)"><animateTransform repeatCount="indefinite" type="translate" attributeName="transform" dur="1.56s" begin="1.88s" calcMode="spline" values="-14 63.5; 194 567.5; 579 632.5" keyTimes="0; 0.513; 1" keySplines="0 0 1 1; 0 0 1 1" fill="freeze" /><g transform="scale(0,0)"><animateTransform repeatCount="indefinite" type="scale" attributeName="transform" dur="0.92s" begin="1.88s" calcMode="spline" values="0 0; 0.5 0.5; 0.67 0.67" keyTimes="0; 0.435; 1" keySplines="0.333 0 0.667 1; 0.333 0 0.833 1" fill="freeze" /><g transform="translate(2,-537.5)"><g id="Ellipse 1" transform="matrix(1,0,0,1,-2,537.5)"><ellipse ry="108" rx="108" cy="0" cx="0" fill="#ffffff" fill-opacity="1" /></g></g></g></g></g></g><g transform="matrix(1.21,0,0,1.21,540,440)" id="Null 1"><g visibility="hidden" id="Smoke Particle 31"><animate repeatCount="indefinite" begin="1.72s" calcMode="discrete" fill="freeze" dur="1.6s" values="visible; visible" keyTimes="0; 1" attributeName="visibility" /><g transform="translate(-36,405.5)"><animateTransform repeatCount="indefinite" type="translate" attributeName="transform" dur="1.56s" begin="1.72s" calcMode="spline" values="-36 405.5; 366 577.5; 743 190.5" keyTimes="0; 0.513; 1" keySplines="0 0 1 1; 0 0 1 1" fill="freeze" /><g transform="scale(0,0)"><animateTransform repeatCount="indefinite" type="scale" attributeName="transform" dur="0.4s" begin="1.72s" calcMode="spline" values="0 0; 1 1" keyTimes="0; 1" keySplines="0.333 0 0.667 1" fill="freeze" /><g transform="translate(2,-537.5)"><g id="Ellipse 1" transform="matrix(1,0,0,1,-2,537.5)"><ellipse ry="108" rx="108" cy="0" cx="0" fill="#ffffff" fill-opacity="1" /></g></g></g></g></g></g><g transform="matrix(1.21,0,0,1.21,540,440)" opacity="0" id="Null 1" /><g id="For Position"><g transform="translate(540,1629)"><animateTransform repeatCount="indefinite" type="translate" attributeName="transform" dur="2.36s" begin="0s" calcMode="spline" values="540 1629; 540 598; 540 597.941; 540 539.951; 540 700; 540 -214" keyTimes="0; 0.339; 0.356; 0.712; 0.898; 1" keySplines="0.65 0 0.35 1; 0.339 0 0.833 0.833; 0.167 0.167 0.667 1; 0.333 0 0.664 1; 0.65 0 0.35 1" fill="freeze" /><g transform="scale(1,1) translate(0,0)"><g transform="matrix(4.16,0,0,4.16,-129.886,98.652)" id="Left Wing"><g id="Group 1"><path fill="#84b4fe" fill-opacity="1" d="M5.599,-26.093C5.599,-26.093,-21.69,-12.879,-10.877,26.093C-10.877,26.093,-5.103,6.502,13.411,1.43L5.599,-26.093Z" /></g></g></g></g></g><g id="For Position"><g transform="translate(540,1629)"><animateTransform repeatCount="indefinite" type="translate" attributeName="transform" dur="2.36s" begin="0s" calcMode="spline" values="540 1629; 540 598; 540 597.941; 540 539.951; 540 700; 540 -214" keyTimes="0; 0.339; 0.356; 0.712; 0.898; 1" keySplines="0.65 0 0.35 1; 0.339 0 0.833 0.833; 0.167 0.167 0.667 1; 0.333 0 0.664 1; 0.65 0 0.35 1" fill="freeze" /><g transform="scale(1,1) translate(0,0)"><g transform="matrix(4.16,0,0,4.16,129.454,98.652)" id="Right Wing"><g id="Group 1"><path fill="#84b4fe" fill-opacity="1" d="M-5.599,-26.093C-5.599,-26.093,21.69,-12.879,10.877,26.093C10.877,26.093,5.103,6.502,-13.411,1.43L-5.599,-26.093Z" /></g></g></g></g></g><g id="For Position"><g transform="translate(540,1629)"><animateTransform repeatCount="indefinite" type="translate" attributeName="transform" dur="2.36s" begin="0s" calcMode="spline" values="540 1629; 540 598; 540 597.941; 540 539.951; 540 700; 540 -214" keyTimes="0; 0.339; 0.356; 0.712; 0.898; 1" keySplines="0.65 0 0.35 1; 0.339 0 0.833 0.833; 0.167 0.167 0.667 1; 0.333 0 0.664 1; 0.65 0 0.35 1" fill="freeze" /><g transform="scale(1,1) translate(0,0)"><g transform="matrix(4.16,0,0,4.16,-1.957,122.552)" id="Bottom Lead"><g id="Group 1"><path fill="#214a81" fill-opacity="1" d="M9.274,3.812L-9.274,3.812C-10.006,3.812,-10.64,3.306,-10.802,2.592L-11.82,-1.899C-12.042,-2.879,-11.297,-3.812,-10.292,-3.812L10.292,-3.812C11.297,-3.812,12.042,-2.879,11.82,-1.899L10.802,2.592C10.64,3.306,10.006,3.812,9.274,3.812Z" /></g></g></g></g></g><g id="For Position"><g transform="translate(540,1629)"><animateTransform repeatCount="indefinite" type="translate" attributeName="transform" dur="2.36s" begin="0s" calcMode="spline" values="540 1629; 540 598; 540 597.941; 540 539.951; 540 700; 540 -214" keyTimes="0; 0.339; 0.356; 0.712; 0.898; 1" keySplines="0.65 0 0.35 1; 0.339 0 0.833 0.833; 0.167 0.167 0.667 1; 0.333 0 0.664 1; 0.65 0 0.35 1" fill="freeze" /><g transform="scale(1,1) translate(0,0)"><g transform="matrix(4.16,0,0,4.16,-0.728,-84.535)" id="Main Body"><g id="Group 1"><path fill="#c1ddf7" fill-opacity="1" d="M-27.063,7.415C-27.063,7.415,-24.215,33.554,-15.417,50.116C-15.417,50.116,-1.442,43.387,15.12,50.116C15.12,50.116,25.213,36.141,27.283,5.345C28.476,-12.4,27.051,-32.66,21.174,-50.116L-19.873,-50.116C-25.337,-35.896,-29.227,-16.801,-27.063,7.415Z" /></g></g></g></g></g><g id="For Position"><g transform="translate(540,1629)"><animateTransform repeatCount="indefinite" type="translate" attributeName="transform" dur="2.36s" begin="0s" calcMode="spline" values="540 1629; 540 598; 540 597.941; 540 539.951; 540 700; 540 -214" keyTimes="0; 0.339; 0.356; 0.712; 0.898; 1" keySplines="0.65 0 0.35 1; 0.339 0 0.833 0.833; 0.167 0.167 0.667 1; 0.333 0 0.664 1; 0.65 0 0.35 1" fill="freeze" /><g transform="scale(1,1) translate(0,0)"><g transform="matrix(4.16,0,0,4.16,1.978,-355.433)" id="Top Tricone"><g id="Group 1"><path fill="#214a81" fill-opacity="1" d="M-3.826,-13.317C-7.955,-8.646,-15.034,0.716,-20.524,15.004L20.524,15.004C16.763,3.834,11.182,-6.19,3.283,-13.663C1.25,-15.586,-1.972,-15.414,-3.826,-13.317Z" /></g></g></g></g></g><g id="For Position"><g transform="translate(540,1629)"><animateTransform repeatCount="indefinite" type="translate" attributeName="transform" dur="2.36s" begin="0s" calcMode="spline" values="540 1629; 540 598; 540 597.941; 540 539.951; 540 700; 540 -214" keyTimes="0; 0.339; 0.356; 0.712; 0.898; 1" keySplines="0.65 0 0.35 1; 0.339 0 0.833 0.833; 0.167 0.167 0.667 1; 0.333 0 0.664 1; 0.65 0 0.35 1" fill="freeze" /><g transform="scale(1,1) translate(0,0)"><g transform="matrix(4.16,0,0,4.16,-1.957,71.317)" id="Center Wing"><g id="Group 1"><path fill="#84b4fe" fill-opacity="1" d="M-0.311,-31.312C-0.311,-31.312,-12.901,-2.704,-0.311,31.312C-0.311,31.312,13.68,2.929,-0.311,-31.312Z" /></g></g></g></g></g><g id="For Position"><g transform="translate(540,1629)"><animateTransform repeatCount="indefinite" type="translate" attributeName="transform" dur="2.36s" begin="0s" calcMode="spline" values="540 1629; 540 598; 540 597.941; 540 539.951; 540 700; 540 -214" keyTimes="0; 0.339; 0.356; 0.712; 0.898; 1" keySplines="0.65 0 0.35 1; 0.339 0 0.833 0.833; 0.167 0.167 0.667 1; 0.333 0 0.664 1; 0.65 0 0.35 1" fill="freeze" /><g transform="scale(1,1) translate(0,0)"><g transform="matrix(4.16,0,0,4.16,1.638,-169.378)" id="Outer Circle"><g id="Group 1"><path fill="#214a81" fill-opacity="1" d="M15.838,0C15.838,8.747,8.747,15.838,0,15.838C-8.747,15.838,-15.838,8.747,-15.838,0C-15.838,-8.747,-8.747,-15.838,0,-15.838C8.747,-15.838,15.838,-8.747,15.838,0Z" /></g></g></g></g></g><g id="For Position"><g transform="translate(540,1629)"><animateTransform repeatCount="indefinite" type="translate" attributeName="transform" dur="2.36s" begin="0s" calcMode="spline" values="540 1629; 540 598; 540 597.941; 540 539.951; 540 700; 540 -214" keyTimes="0; 0.339; 0.356; 0.712; 0.898; 1" keySplines="0.65 0 0.35 1; 0.339 0 0.833 0.833; 0.167 0.167 0.667 1; 0.333 0 0.664 1; 0.65 0 0.35 1" fill="freeze" /><g transform="scale(1,1) translate(0,0)"><g transform="matrix(4.16,0,0,4.16,1.638,-169.377)" id="Inner Circle"><g id="Group 1"><path fill="#ffd474" fill-opacity="1" d="M10.995,0C10.995,6.072,6.072,10.995,0,10.995C-6.072,10.995,-10.995,6.072,-10.995,0C-10.995,-6.072,-6.072,-10.995,0,-10.995C6.072,-10.995,10.995,-6.072,10.995,0Z" /></g></g></g></g></g><g opacity="0" id="For Position"><g transform="translate(540,1629)"><animateTransform repeatCount="indefinite" type="translate" attributeName="transform" dur="2.36s" begin="0s" calcMode="spline" values="540 1629; 540 598; 540 597.941; 540 539.951; 540 700; 540 -214" keyTimes="0; 0.339; 0.356; 0.712; 0.898; 1" keySplines="0.65 0 0.35 1; 0.339 0 0.833 0.833; 0.167 0.167 0.667 1; 0.333 0 0.664 1; 0.65 0 0.35 1" fill="freeze" /><g transform="scale(1,1) translate(0,0)" /></g></g></svg>