<?xml version="1.0" encoding="utf-8"?><svg fill="none" viewBox="0 0 500 500" xmlns="http://www.w3.org/2000/svg"><defs /><g id="Text"><g transform="translate(360,158)"><animateTransform repeatCount="indefinite" type="translate" attributeName="transform" dur="1.5s" begin="0.667s" calcMode="spline" values="360 158; 377 158; 360 158" keyTimes="0; 0.333; 1" keySplines="0.5 0 0.5 1; 0.5 0 0.5 1" fill="freeze" /><g transform="scale(1,1) translate(-359.846,-157.581)"><g id="5" transform="matrix(1,0,0,1,335.039,228.692)"><g id="Group 1"><path stroke-linejoin="round" stroke-linecap="butt" stroke-width="10.939" stroke-opacity="1" stroke="#525c6b" d="M89.961,5.47L-12.28,5.47" /></g></g><g id="4" transform="matrix(1,0,0,1,337.039,190.403)"><g id="Group 1"><path stroke-linejoin="round" stroke-linecap="butt" stroke-width="10.939" stroke-opacity="1" stroke="#525c6b" d="M87.961,5.469L-9.031,5.341" /></g></g><g id="3" transform="matrix(1,0,0,1,325.099,152.112)"><g id="Group 1"><path stroke-linejoin="round" stroke-linecap="butt" stroke-width="10.939" stroke-opacity="1" stroke="#525c6b" d="M99.901,5.469L5.469,5.469" /></g></g><g id="2" transform="matrix(1,0,0,1,297.219,113.822)"><g id="Group 1"><path stroke-linejoin="round" stroke-linecap="butt" stroke-width="10.939" stroke-opacity="1" stroke="#525c6b" d="M127.781,5.469L5.469,5.469" /></g></g><g id="1" transform="matrix(1,0,0,1,205.911,75.531)"><g id="Group 1"><path stroke-linejoin="round" stroke-linecap="butt" stroke-width="10.939" stroke-opacity="1" stroke="#525c6b" d="M219.089,5.469L5.469,5.469" /></g></g></g></g></g><g id="Magnifier"><g transform="translate(212,212)"><animateTransform repeatCount="indefinite" type="translate" attributeName="transform" dur="2.167s" begin="0s" calcMode="spline" values="212 212; 193 212; 231 212; 212 212" keyTimes="0; 0.308; 0.538; 1" keySplines="0.5 0 0.5 1; 0.5 0 0.5 1; 0.5 0 0.5 1" fill="freeze" /><g transform="scale(1,1) translate(-212.5,-212)"><g id="Main part" transform="matrix(1,0,0,1,61.434,61.434)"><g id="Group 1" transform="matrix(1,0,0,1,155.357,155.357)"><path fill="#cfcfcf" fill-opacity="1" d="M155.107,117.459L108.013,70.365C143.506,17.361,137.846,-55.027,91.027,-101.846C37.767,-155.107,-48.586,-155.107,-101.846,-101.846C-155.107,-48.586,-155.107,37.766,-101.846,91.027C-55.027,137.846,17.361,143.506,70.365,108.013L117.459,155.107L155.107,117.459Z" /></g></g><g id="Lever" transform="matrix(1,0,0,1,295.006,295.006)"><g id="Group 2" transform="matrix(1,0,0,1,39.97,39.971)"><path fill="#5f6675" fill-opacity="1" d="M10.595,-39.721L-39.72,10.594L-10.595,39.721L39.72,-10.594L10.595,-39.721Z" /></g><g id="Group 1" transform="matrix(1,0,0,1,81.274,81.274)"><path fill="#8896a3" fill-opacity="1" d="M39.185,-11.13L-1.583,-51.898L-51.898,-1.583L-11.13,39.185C1.583,51.898,22.196,51.898,34.909,39.185L39.185,34.908C51.898,22.195,51.898,1.583,39.185,-11.13Z" /></g></g></g></g></g><g id="Magnifier"><g transform="translate(212,212)"><animateTransform repeatCount="indefinite" type="translate" attributeName="transform" dur="2.167s" begin="0s" calcMode="spline" values="212 212; 193 212; 231 212; 212 212" keyTimes="0; 0.308; 0.538; 1" keySplines="0.5 0 0.5 1; 0.5 0 0.5 1; 0.5 0 0.5 1" fill="freeze" /><g transform="scale(1,1) translate(-212.5,-212)"><g id="Graph"><g transform="translate(212,212)"><g transform="rotate(0)"><animateTransform repeatCount="indefinite" type="rotate" attributeName="transform" dur="4.833s" begin="0s" calcMode="spline" values="0; -20; 20; 0; 360" keyTimes="0; 0.138; 0.276; 0.483; 1" keySplines="0.5 0 0.5 1; 0.5 0 0.5 1; 0.5 0 0.5 1; 0.5 0 0.5 1" fill="freeze" /><g transform="scale(1,1)"><animateTransform repeatCount="indefinite" type="scale" attributeName="transform" dur="3.5s" begin="1.333s" calcMode="spline" values="1 1; 1.1 1.1; 1.1 1.1; 1 1" keyTimes="0; 0.286; 0.714; 1" keySplines="0.5 0 0.5 1; 0.5 0 0.5 1; 0.5 0 0.5 1" fill="freeze" /><g transform="translate(-107.663,-102.75)"><g id="Group 4" transform="matrix(1,0,0,1,147.309,51.501)"><path fill="#59c5ef" fill-opacity="1" d="M39.689,-13.595C37.537,-16.224,35.242,-18.774,32.789,-21.228C12.774,-41.243,-13.457,-51.25,-39.689,-51.25L-39.689,51.25L39.689,-13.595Z" /></g><g id="Group 3" transform="matrix(1,0,0,1,84.723,156.269)"><path fill="#f05e56" fill-opacity="1" d="M-76.962,-30.81C-72.835,-12.578,-63.777,4.765,-49.581,18.96C-39.027,29.514,-26.743,37.286,-13.642,42.275C15.888,53.519,49.57,50.623,76.962,33.589L22.897,-53.519L-76.962,-30.81Z" /></g><g id="Group 2" transform="matrix(1,0,0,1,53.935,62.855)"><path fill="#5bbaa7" fill-opacity="1" d="M53.685,-62.605C27.453,-62.605,1.221,-52.598,-18.794,-32.583C-44.627,-6.75,-53.685,29.424,-46.174,62.605L53.685,39.895L53.685,-62.605Z" /></g><g id="Group 1" transform="matrix(1,0,0,1,163.794,113.883)"><path fill="#ebebeb" fill-opacity="1" d="M16.305,61.346C53.88,23.771,56.174,-35.715,23.204,-75.977L-56.174,-11.132L-2.109,75.977C-0.271,74.833,1.539,73.626,3.318,72.355C7.871,69.103,12.218,65.433,16.305,61.346Z" /></g></g></g></g></g></g></g></g></g><g id="Magnifier"><g transform="translate(212,212)"><animateTransform repeatCount="indefinite" type="translate" attributeName="transform" dur="2.167s" begin="0s" calcMode="spline" values="212 212; 193 212; 231 212; 212 212" keyTimes="0; 0.308; 0.538; 1" keySplines="0.5 0 0.5 1; 0.5 0 0.5 1; 0.5 0 0.5 1" fill="freeze" /><g transform="scale(1,1) translate(-212.5,-212)"><g id="Ellipse"><g transform="translate(212,212)"><g transform="scale(1,1)"><animateTransform repeatCount="indefinite" type="scale" attributeName="transform" dur="2.167s" begin="0s" calcMode="spline" values="1 1; 0.8 0.8; 1.2 1.2; 1 1" keyTimes="0; 0.308; 0.615; 1" keySplines="0.5 0 0.5 1; 0.5 0 0.5 1; 0.5 0 0.5 1" fill="freeze" /><g transform="translate(-44.155,-44.156)"><g id="Group 1" transform="matrix(1,0,0,1,44.155,44.156)"><path fill="#cfcfcf" fill-opacity="1" d="M28.284,-28.285C12.663,-43.906,-12.664,-43.906,-28.284,-28.285C-43.905,-12.664,-43.905,12.663,-28.284,28.284C-12.664,43.905,12.663,43.905,28.284,28.284C43.905,12.663,43.905,-12.664,28.284,-28.285Z" /></g></g></g></g></g></g></g></g><g id="Coin"><g transform="translate(150,350)"><animateTransform repeatCount="indefinite" type="translate" attributeName="transform" dur="4.833s" begin="0s" calcMode="spline" values="150 350; 135 350; 135 350; 170 350; 211 211; 211 211; 150 350" keyTimes="0; 0.103; 0.138; 0.276; 0.483; 0.793; 1" keySplines="0.5 0 0.5 1; 0 0 1 1; 0.5 0 0.5 1; 0.5 0 0.5 1; 0 0 1 1; 0.5 0 0.5 1" fill="freeze" /><g transform="scale(1,1)"><animateTransform repeatCount="indefinite" type="scale" attributeName="transform" dur="3.5s" begin="1.333s" calcMode="spline" values="1 1; 0.85 0.85; 0.85 0.85; 1 1" keyTimes="0; 0.286; 0.714; 1" keySplines="0.5 0 0.5 1; 0.5 0 0.5 1; 0.5 0 0.5 1" fill="freeze" /><g transform="translate(-101.692,-101.692)"><g id="Group 1" transform="matrix(1,0,0,1,101.692,101.692)"><path stroke-linejoin="round" stroke-linecap="round" stroke-width="10.939" stroke-opacity="1" stroke="#ffbd66" fill="#ffdc69" fill-opacity="1" d="M74.345,0C74.345,41.059,41.06,74.345,0,74.345C-41.059,74.345,-74.345,41.059,-74.345,0C-74.345,-41.059,-41.059,-74.345,0,-74.345C41.06,-74.345,74.345,-41.059,74.345,0Z" /></g></g></g></g></g><g id="Coin"><g transform="translate(150,350)"><animateTransform repeatCount="indefinite" type="translate" attributeName="transform" dur="4.833s" begin="0s" calcMode="spline" values="150 350; 135 350; 135 350; 170 350; 211 211; 211 211; 150 350" keyTimes="0; 0.103; 0.138; 0.276; 0.483; 0.793; 1" keySplines="0.5 0 0.5 1; 0 0 1 1; 0.5 0 0.5 1; 0.5 0 0.5 1; 0 0 1 1; 0.5 0 0.5 1" fill="freeze" /><g transform="scale(1,1)"><animateTransform repeatCount="indefinite" type="scale" attributeName="transform" dur="3.5s" begin="1.333s" calcMode="spline" values="1 1; 0.85 0.85; 0.85 0.85; 1 1" keyTimes="0; 0.286; 0.714; 1" keySplines="0.5 0 0.5 1; 0.5 0 0.5 1; 0.5 0 0.5 1" fill="freeze" /><g transform="translate(-101.692,-101.692)"><g id="Dollar"><g transform="translate(102,102)"><g transform="rotate(0)"><animateTransform repeatCount="indefinite" type="rotate" attributeName="transform" dur="4.567s" begin="0s" calcMode="spline" values="0; -12; 14; 0; 0; 15; -15; 0" keyTimes="0; 0.109; 0.292; 0.474; 0.511; 0.679; 0.839; 1" keySplines="0.5 0 0.5 1; 0.5 0 0.5 1; 0.5 0 0.5 1; 0.5 0 0.5 1; 0.5 0 0.5 1; 0.5 0 0.5 1; 0.5 0 0.5 1" fill="freeze" /><g transform="scale(1,1) translate(-47.482,-63.874)"><g id="Group 3" transform="matrix(1,0,0,1,47.482,63.873)"><path stroke-linejoin="round" stroke-linecap="round" stroke-width="10.939" stroke-opacity="1" stroke="#ffbd66" d="M-18.746,24.782C-15.857,31.65,-8.537,36.526,0.036,36.526C11.137,36.526,20.135,28.351,20.135,18.264C20.135,8.177,14.164,0,-0.036,0C-14.235,0,-20.135,-8.177,-20.135,-18.263C-20.135,-28.351,-11.136,-36.526,-0.036,-36.526C8.538,-36.526,15.858,-31.649,18.747,-24.781" /></g><g id="Group 2"><path stroke-linejoin="round" stroke-linecap="round" stroke-width="10.939" stroke-opacity="1" stroke="#ffbd66" d="M47.447,17.301L47.447,27.347" /></g><g id="Group 1"><path stroke-linejoin="round" stroke-linecap="round" stroke-width="10.939" stroke-opacity="1" stroke="#ffbd66" d="M47.447,110.446L47.447,100.4" /></g></g></g></g></g></g></g></g></g></svg>